<svg xmlns="http://www.w3.org/2000/svg" xmlns:xlink="http://www.w3.org/1999/xlink" width="1080" zoomAndPan="magnify" viewBox="0 0 810 809.999993" height="1080" preserveAspectRatio="xMidYMid meet" version="1.0"><defs><clipPath id="7ef004dc9c"><path d="M 13.921875 14.898438 L 795 14.898438 L 795 794.898438 L 13.921875 794.898438 Z M 13.921875 14.898438 " clip-rule="nonzero"/></clipPath><clipPath id="e4c6286e54"><path d="M 462 321 L 514 321 L 514 450 L 462 450 Z M 462 321 " clip-rule="nonzero"/></clipPath><clipPath id="b3c71fc9db"><path d="M 500 321.742188 L 513.765625 325.910156 L 476.46875 449.0625 L 462.703125 444.890625 Z M 500 321.742188 " clip-rule="nonzero"/></clipPath></defs><path fill="#000000" d="M 163.738281 447.695312 L 140.519531 468.707031 L 140.519531 494.128906 L 267.9375 494.128906 L 267.9375 459.582031 L 200.222656 459.582031 L 200.222656 459.035156 L 216.804688 445.210938 C 242.789062 421.992188 264.621094 397.953125 264.621094 367.824219 C 264.621094 335.207031 242.234375 311.441406 201.609375 311.441406 C 177.28125 311.441406 156.277344 319.730469 142.734375 329.960938 L 154.617188 360.089844 C 164.019531 352.894531 177.5625 345.160156 193.039062 345.160156 C 213.769531 345.160156 222.613281 356.765625 222.613281 371.417969 C 222.058594 392.425781 202.984375 412.597656 163.738281 447.695312 " fill-opacity="1" fill-rule="nonzero"/><path fill="#000000" d="M 327.914062 419.785156 L 327.914062 419.230469 L 351.960938 379.984375 C 358.042969 368.652344 362.738281 358.148438 368.546875 346.539062 L 369.648438 346.539062 C 368.820312 358.148438 368.265625 369.207031 368.265625 379.984375 L 368.265625 419.785156 Z M 408.066406 494.128906 L 408.066406 451.292969 L 429.628906 451.292969 L 429.628906 419.785156 L 408.066406 419.785156 L 408.066406 314.484375 L 356.660156 314.484375 L 288.667969 423.929688 L 288.667969 451.292969 L 368.265625 451.292969 L 368.265625 494.128906 L 408.066406 494.128906 " fill-opacity="1" fill-rule="nonzero"/><path fill="#000000" d="M 468.046875 505.1875 L 527.195312 304.808594 L 499.277344 304.808594 L 440.128906 505.1875 L 468.046875 505.1875 " fill-opacity="1" fill-rule="nonzero"/><path fill="#000000" d="M 549.027344 494.128906 L 593.523438 494.128906 L 667.59375 341.015625 L 667.59375 314.484375 L 540.730469 314.484375 L 540.730469 349.03125 L 623.097656 349.03125 L 623.097656 349.582031 L 549.027344 494.128906 " fill-opacity="1" fill-rule="nonzero"/><g clip-path="url(#7ef004dc9c)"><path fill="#000000" d="M 793.839844 389.296875 L 724.851562 392.066406 C 728.429688 481.386719 694.25 568.847656 631.078125 632.019531 C 505.898438 757.199219 302.214844 757.199219 177.042969 632.019531 C 51.863281 506.839844 51.863281 303.160156 177.042969 177.980469 C 302.214844 52.800781 505.898438 52.800781 631.078125 177.980469 L 594.347656 214.710938 L 716.628906 214.710938 L 716.628906 92.425781 L 679.898438 129.160156 C 606.21875 55.480469 508.257812 14.90625 404.058594 14.90625 C 299.863281 14.90625 201.898438 55.480469 128.21875 129.160156 C 54.539062 202.839844 13.964844 300.800781 13.964844 405 C 13.964844 509.199219 54.539062 607.15625 128.21875 680.835938 C 201.898438 754.515625 299.863281 795.09375 404.058594 795.09375 C 508.257812 795.09375 606.21875 754.515625 679.898438 680.835938 C 719.082031 641.65625 748.894531 595.738281 768.507812 544.355469 C 787.453125 494.738281 795.972656 442.570312 793.839844 389.296875 " fill-opacity="1" fill-rule="nonzero"/></g><g clip-path="url(#e4c6286e54)"><g clip-path="url(#b3c71fc9db)"><path fill="#000000" d="M 500 321.742188 L 513.765625 325.910156 L 476.472656 449.050781 L 462.707031 444.882812 Z M 500 321.742188 " fill-opacity="1" fill-rule="nonzero"/></g></g></svg>